<?xml version="1.0" standalone="no"?>
<!DOCTYPE svg PUBLIC "-//W3C//DTD SVG 20010904//EN"
 "http://www.w3.org/TR/2001/REC-SVG-20010904/DTD/svg10.dtd">
<svg version="1.0" xmlns="http://www.w3.org/2000/svg"
 width="400.000000pt" height="400.000000pt" viewBox="0 0 400.000000 400.000000"
 preserveAspectRatio="xMidYMid meet">
<metadata>
Created by potrace 1.11, written by Peter Selinger 2001-2013
</metadata>
<g transform="translate(0.000000,400.000000) scale(0.100000,-0.100000)"
fill="#000000" stroke="none">
<path d="M850 2605 l0 -215 40 0 40 0 0 95 0 95 75 0 75 0 0 35 0 35 -75 0
-75 0 0 50 0 50 95 0 95 0 0 35 0 35 -135 0 -135 0 0 -215z"/>
<path d="M1220 2688 c-53 -28 -80 -75 -80 -141 0 -57 18 -95 60 -131 26 -22
41 -26 92 -26 73 0 118 24 142 74 21 45 20 123 -2 166 -21 40 -90 80 -137 80
-17 0 -51 -10 -75 -22z m129 -74 c27 -35 28 -103 2 -135 -13 -17 -29 -23 -56
-23 -50 0 -75 30 -75 91 0 83 83 126 129 67z"/>
<path d="M1660 2703 c-8 -3 -25 -15 -37 -26 l-23 -20 0 21 c0 19 -6 22 -40 22
l-40 0 0 -155 0 -155 39 0 39 0 4 101 c3 97 4 102 32 125 18 16 38 24 54 22
22 -3 27 2 33 29 5 26 3 32 -15 37 -24 6 -25 6 -46 -1z"/>
<path d="M1905 2694 c-16 -8 -33 -21 -37 -27 -5 -8 -8 -4 -8 11 0 19 -5 22
-40 22 l-40 0 0 -155 0 -155 39 0 39 0 4 104 c3 117 19 150 67 144 l26 -3 3
-122 3 -123 39 0 40 0 0 88 c0 106 19 155 62 160 38 5 48 -25 48 -149 l0 -99
35 0 35 0 0 129 c0 121 -2 132 -23 157 -34 39 -95 39 -136 0 -28 -27 -30 -27
-40 -8 -6 11 -25 25 -42 31 -40 14 -38 14 -74 -5z"/>
<path d="M1876 2184 c-23 -23 -20 -51 9 -70 23 -15 27 -15 50 0 27 18 31 36
15 67 -13 23 -53 25 -74 3z"/>
<path d="M850 1965 l0 -215 88 0 c100 0 152 19 194 68 37 45 51 94 46 172 -7
134 -77 190 -236 190 l-92 0 0 -215z m191 124 c53 -28 75 -122 45 -194 -16
-38 -51 -59 -113 -69 l-43 -6 0 146 0 147 45 -7 c25 -3 55 -11 66 -17z"/>
<path d="M2246 2073 c-4 -5 -37 -8 -72 -9 -48 -1 -72 -6 -92 -21 -35 -26 -49
-75 -34 -115 9 -26 8 -34 -10 -58 -16 -23 -18 -34 -11 -57 7 -20 6 -37 -4 -61
-11 -27 -11 -37 1 -67 19 -46 71 -68 146 -63 68 5 106 30 121 79 23 75 -29
119 -143 119 -41 0 -48 3 -48 20 0 17 7 20 45 20 86 0 135 50 121 124 -6 29
-3 35 14 41 23 7 24 14 6 38 -14 18 -28 22 -40 10z m-58 -85 c16 -16 15 -33
-4 -52 -23 -24 -53 -20 -66 9 -8 19 -8 28 2 40 15 18 51 20 68 3z m20 -243 c6
-3 12 -14 12 -25 0 -30 -45 -45 -92 -30 -32 9 -38 15 -38 39 0 28 1 28 53 24
28 -3 58 -6 65 -8z"/>
<path d="M1345 2063 c-88 -24 -133 -146 -88 -240 26 -55 66 -75 142 -70 59 3
66 6 99 42 l36 39 -32 13 c-29 12 -33 11 -56 -12 -31 -30 -65 -32 -100 -4 -51
40 -36 49 79 49 l105 0 0 38 c0 45 -26 99 -60 124 -27 19 -92 30 -125 21z m87
-80 c35 -32 23 -43 -47 -43 -69 0 -78 7 -45 40 24 24 67 26 92 3z"/>
<path d="M1674 2063 c-34 -7 -66 -47 -67 -86 -1 -45 15 -64 81 -93 45 -20 53
-27 50 -46 -4 -33 -42 -35 -73 -4 -25 25 -27 25 -56 11 -28 -15 -29 -16 -13
-41 45 -68 170 -73 205 -8 16 31 16 79 -1 100 -8 9 -38 27 -67 40 -32 14 -53
29 -53 39 0 22 27 30 56 15 20 -11 27 -11 43 4 11 10 18 23 15 30 -10 27 -76
48 -120 39z"/>
<path d="M2500 2063 c-8 -3 -25 -15 -37 -26 l-23 -20 0 21 c0 19 -6 22 -40 22
l-40 0 0 -155 0 -155 40 0 40 0 0 93 c0 106 21 157 63 157 41 0 47 -17 47
-137 l0 -113 40 0 40 0 0 119 c0 66 -4 131 -10 146 -14 37 -79 63 -120 48z"/>
<path d="M1870 1905 l0 -155 40 0 40 0 0 155 0 155 -40 0 -40 0 0 -155z"/>
<path d="M850 1325 l0 -215 40 0 40 0 0 85 0 85 55 0 c97 0 151 37 155 105 5
70 0 87 -34 121 l-34 34 -111 0 -111 0 0 -215z m191 135 c24 -13 26 -72 4 -90
-9 -7 -38 -15 -65 -18 l-50 -5 0 62 0 61 46 0 c25 0 54 -5 65 -10z"/>
<path d="M1558 1519 c-22 -16 -28 -29 -28 -60 0 -35 -3 -39 -25 -39 -21 0 -25
-5 -25 -30 0 -25 4 -30 25 -30 25 0 25 -1 25 -85 0 -129 25 -165 114 -165 48
0 51 4 40 48 -5 17 -11 21 -26 16 -37 -11 -48 13 -48 102 l0 84 40 0 c38 0 40
2 40 30 0 28 -2 30 -40 30 l-40 0 0 60 c0 67 -8 72 -52 39z"/>
<path d="M1818 1519 c-22 -16 -28 -29 -28 -60 0 -35 -3 -39 -25 -39 -21 0 -25
-5 -25 -30 0 -25 4 -30 25 -30 25 0 25 -1 25 -85 0 -129 25 -165 114 -165 48
0 51 4 40 48 -5 17 -11 21 -26 16 -37 -11 -48 13 -48 102 l0 84 40 0 c38 0 40
2 40 30 0 28 -2 30 -40 30 l-40 0 0 60 c0 67 -8 72 -52 39z"/>
<path d="M1266 1420 c-33 -10 -76 -47 -76 -66 0 -25 54 -32 76 -9 31 31 94 13
94 -27 0 -15 -9 -18 -50 -18 -64 0 -108 -22 -125 -64 -16 -38 -10 -72 18 -103
24 -27 101 -32 133 -8 25 19 34 19 34 0 0 -11 11 -15 36 -15 l36 0 -4 119 c-5
134 -16 163 -73 187 -38 16 -57 16 -99 4z m94 -190 c0 -21 -50 -61 -73 -58
-26 4 -37 46 -15 59 19 12 88 11 88 -1z"/>
<path d="M2105 1423 c-88 -24 -133 -146 -88 -240 26 -55 66 -75 142 -70 59 3
66 6 99 42 l36 39 -32 13 c-29 12 -33 11 -56 -12 -31 -30 -65 -32 -100 -4 -51
40 -36 49 79 49 l105 0 0 38 c0 45 -26 99 -60 124 -27 19 -92 30 -125 21z m87
-80 c35 -32 23 -43 -47 -43 -69 0 -78 7 -45 40 24 24 67 26 92 3z"/>
<path d="M2500 1423 c-8 -3 -25 -15 -37 -26 l-23 -20 0 21 c0 19 -6 22 -40 22
l-40 0 0 -155 0 -155 39 0 39 0 4 101 c3 97 4 102 32 125 18 16 38 24 54 22
22 -3 27 2 33 29 5 26 3 32 -15 37 -24 6 -25 6 -46 -1z"/>
<path d="M2760 1423 c-8 -3 -25 -15 -37 -26 l-23 -20 0 21 c0 19 -6 22 -40 22
l-40 0 0 -155 0 -155 40 0 40 0 0 93 c0 106 21 157 63 157 41 0 47 -17 47
-137 l0 -113 40 0 40 0 0 119 c0 66 -4 131 -10 146 -14 37 -79 63 -120 48z"/>
<path d="M3044 1423 c-34 -7 -66 -47 -67 -86 -1 -45 15 -64 81 -93 45 -20 53
-27 50 -46 -4 -33 -42 -35 -73 -4 -25 25 -27 25 -56 11 -28 -15 -29 -16 -13
-41 45 -68 170 -73 205 -8 16 31 16 79 -1 100 -8 9 -38 27 -67 40 -32 14 -53
29 -53 39 0 22 27 30 56 15 20 -11 27 -11 43 4 11 10 18 23 15 30 -10 27 -76
48 -120 39z"/>
</g>
</svg>
